<?xml version="1.0" encoding="UTF-8"?>
<!DOCTYPE svg PUBLIC "-//W3C//DTD SVG 1.1//EN" "http://www.w3.org/Graphics/SVG/1.1/DTD/svg11.dtd">
<!-- Creator: CorelDRAW 2018 (64 Bit Versión de evaluación) -->
<svg xmlns="http://www.w3.org/2000/svg" xml:space="preserve" width="210mm" height="297mm" version="1.1" style="shape-rendering:geometricPrecision; text-rendering:geometricPrecision; image-rendering:optimizeQuality; fill-rule:evenodd; clip-rule:evenodd"
viewBox="0 0 21000 29700"
 xmlns:xlink="http://www.w3.org/1999/xlink">
 <defs>
  <style type="text/css">
   <![CDATA[
    .fil0 {fill:#E61B6E}
    .fil2 {fill:#89CDE8}
    .fil1 {fill:#256AA4}
    .fil3 {fill:#256AA4;fill-rule:nonzero}
   ]]>
  </style>
 </defs>
 <g id="Capa_x0020_1">
  <metadata id="CorelCorpID_0Corel-Layer"/>
  <path class="fil0" d="M10084.59 7390.07c-137.85,24.05 -1438.11,7.43 -1692.99,7.43 -947.05,0 -809.01,-40.69 -809.01,892.04 0,1059.95 -271.18,910.86 1641.56,910.86 213.73,0 675.93,-24.86 860.44,7.58 22.91,623.5 4.7,1433.57 1.32,2090.89 -0.83,159.16 3.65,251.17 107.11,317.79 120.63,77.67 626.65,38.96 809.71,38.96 992.33,0 907.4,105.54 907.4,-773.16 0,-537.88 -27.6,-1152.49 2.88,-1680.91 2782.58,-62.34 2499.33,307.64 2499.33,-893.08 0,-1201.07 322.88,-859.94 -2499.37,-911.78 -30.46,-528.47 -2.84,-1143.18 -2.84,-1681.14 0,-868.66 91.17,-773.16 -907.4,-773.16 -1293.44,0 -817.04,-270.33 -918.14,2447.68z"/>
  <path class="fil1" d="M19725.38 7612.78l0 -254.59c-11.5,-29.19 -47.02,-629.01 -60.09,-734.09 -28.7,-230.41 -68.12,-454.12 -115.16,-676.39 -90.88,-429.56 -219.14,-822.05 -362.59,-1209.21 -299.14,-807.4 -646.53,-1372.19 -1088.33,-2070.08l-14.7 0c48.78,164.06 131.97,346.2 190.77,521.85 62.34,186.14 110.44,353.33 160.09,542.64 601.72,2295.12 7.51,4775.16 -1448.52,6567.51 -100.86,124.17 -220.72,273.55 -326.14,374.04 -118.56,113.01 -237.02,232.87 -350.52,350.04 -387.37,399.91 -1064.71,877.21 -1654.29,1184.14 -1808.31,941.45 -3871.41,1111.98 -5833.53,475.78 -316.01,-102.47 -946.86,-391.83 -1002.87,-406.97 19.85,26.66 4.84,10.38 30.96,33.24l71.59 45.22c537.48,287.36 979.16,496.21 1560.13,730.37 3279.38,1321.65 6749.66,1019.08 9024.26,-1776.74 100.13,-123.07 182.35,-206.75 265.36,-359.93 513.72,-947.82 788.33,-1679.33 911.95,-2782.02 11,-98.15 23.55,-509.3 41.63,-554.81z"/>
  <path class="fil1" d="M1790.86 8769.38c-7.26,1188.69 114.2,1900.69 460.03,2917.62 214.14,629.72 613.62,1407.47 977.23,1975.58 62.91,98.27 125.4,169.76 170.64,267.01l23.49 0c-928.07,-2074.52 -718.66,-4859.19 517.69,-6818.87 772.82,-1224.98 1653.12,-2035.77 2940.09,-2737.05 1892.32,-1031.14 4388.91,-1098.41 6370.38,-243.41 146.3,63.13 348.94,172.41 491.26,222.51 -86.54,-132.57 -1361.97,-694.63 -1632.12,-804.03 -2720.61,-1101.71 -5762.83,-1214.79 -8087.68,710.35 -429.19,355.39 -853.44,796.96 -1198.26,1242.89 -161.47,208.79 -509.28,979.06 -604.02,1231.73 -176.15,469.77 -302.4,952.3 -373.01,1462.04 -24.3,175.44 -25.91,407.58 -55.72,573.63z"/>
  <path class="fil1" d="M6739.75 10838.89c-192.46,-496.77 -307.39,-584.59 -447.5,-1243.18 -108.86,-511.74 -139.4,-1029.73 -83.49,-1566.94 98.29,-944.27 545.12,-1911.89 1038.68,-2378.89 999.05,-945.29 2966.29,-1460.52 4435.7,-1522.73 106.29,-4.49 804.02,7.41 820.7,-1.4 -175.73,-94.02 -1430.8,-234.51 -1709.77,-251.6 -1149.14,-70.32 -2336.19,37.87 -3340.94,561.66 -436.12,227.36 -867.61,562.07 -1109.34,859.07 -317.68,390.35 -564.39,705.15 -749.91,1218.46 -195.92,542.08 -259.87,1088.33 -166.48,1711.16 119.84,799.07 459.1,1459.6 873.07,2081.25 74.98,112.61 358.48,500.55 439.28,533.14z"/>
  <path class="fil1" d="M9008.83 12472.26c165.69,94.75 1416.64,228.47 1703.3,251.31 601.05,47.85 1284.35,19.46 1858.29,-80.51 547.75,-95.43 1039.49,-248.67 1485.39,-486.43 1378.45,-735.01 2269.25,-2183.93 2014.89,-3807.4 -120.23,-767.37 -465.87,-1472.64 -881.74,-2070.85 -74.79,-107.55 -346.99,-489.43 -431.8,-535.96 28.79,81.23 89.59,185.9 128.23,272.12 618.89,1381.23 608.79,3160.6 -238.86,4443.51 -173.37,262.38 -371.61,490.37 -608.24,678.43 -238.11,189.22 -505.65,353.09 -792.87,494.04 -385.19,189.03 -797.24,343.97 -1230.73,472.07 -729.59,215.61 -1416.39,327.96 -2185.04,368.82 -109.13,5.8 -813.72,-1.99 -820.82,0.85z"/>
  <path class="fil2" d="M8777.63 12435.5c-4.63,-2.74 -11.75,-11.74 -14.3,-7.44l-1255.52 -366.78c106.77,163.95 1002.71,370.58 1269.82,374.22z"/>
  <path class="fil2" d="M12787.15 4183.02c131.76,57.35 436.81,116.18 606.3,167.71 194.19,59.06 406.97,114.74 591.18,183.75 -51.48,-111.39 -1069.7,-426.71 -1197.48,-351.46z"/>
  <polygon class="fil3" points="3483.96,14938.64 4239.67,17015.42 4994.86,14938.64 5140.33,14938.64 4239.67,17412.62 3340.56,14938.64 "/>
  <path id="1" class="fil3" d="M5555.58 15872.83l0 1484.08 -136.18 0 0 -1484.08 136.18 0zm-68.09 -526.15c37.14,0 69.12,13.41 95.95,39.71 26.82,25.8 40.23,57.78 40.23,94.92 0,38.17 -13.41,70.67 -40.23,96.98 -26.83,26.31 -58.81,39.2 -95.95,39.2 -37.14,0 -69.12,-12.89 -95.95,-39.2 -26.82,-26.31 -40.23,-58.81 -40.23,-96.98 0,-37.14 13.41,-69.12 40.23,-94.92 26.83,-26.3 58.81,-39.71 95.95,-39.71z"/>
  <path id="2" class="fil3" d="M7641.13 17356.91l-136.18 0 0 -302.28c-25.8,35.07 -54.68,69.12 -86.15,101.1 -161.97,162.49 -357.99,243.48 -587.54,243.48 -229.04,0 -424.54,-80.99 -586.51,-243.48 -162.49,-161.97 -243.48,-357.48 -243.48,-585.99 0,-230.07 80.99,-426.09 243.48,-588.06 161.97,-161.98 357.47,-243.48 586.51,-243.48 229.55,0 425.57,80.99 587.54,243.48 31.47,31.98 60.35,66.02 86.15,101.1l0 -1144.14 136.18 0 0 2418.27zm-136.18 -653.06l0 -268.75c-25.28,-133.09 -88.21,-250.18 -188.8,-350.77 -134.12,-134.12 -295.58,-200.66 -484.89,-200.66 -189.83,0 -351.29,66.54 -485.41,200.66 -134.12,134.12 -200.66,295.58 -200.66,485.41 0,189.31 66.54,350.77 200.66,484.37 134.12,133.09 295.58,200.15 485.41,200.15 189.31,0 350.77,-67.06 484.89,-201.18 100.59,-100.59 163.52,-217.17 188.8,-349.23z"/>
  <path id="3" class="fil3" d="M9696.24 17356.91l-136.18 0 0 -302.28c-25.8,35.07 -54.68,69.12 -86.15,101.1 -161.97,162.49 -357.99,243.48 -587.54,243.48 -229.04,0 -424.54,-80.99 -586.51,-243.48 -162.49,-161.97 -243.48,-357.48 -243.48,-585.99 0,-230.07 80.99,-426.09 243.48,-588.06 161.97,-161.98 357.47,-243.48 586.51,-243.48 229.55,0 425.57,80.99 587.54,243.48 31.47,31.98 60.35,66.02 86.15,101.1l0 -209.95 136.18 0 0 1484.08zm-136.18 -653.06l0 -268.75c-25.28,-133.09 -88.21,-250.18 -188.8,-350.77 -134.12,-134.12 -295.58,-200.66 -484.89,-200.66 -189.83,0 -351.29,66.54 -485.41,200.66 -134.12,134.12 -200.66,295.58 -200.66,485.41 0,189.31 66.54,350.77 200.66,484.37 134.12,133.09 295.58,200.15 485.41,200.15 189.31,0 350.77,-67.06 484.89,-201.18 100.59,-100.59 163.52,-217.17 188.8,-349.23z"/>
  <path id="4" class="fil3" d="M11355.19 16518.15l0 838.76 -135.67 0 0 -2418.27 634.49 0c184.15,25.28 340.97,102.66 469.93,231.62 154.23,154.23 231.09,339.94 231.09,557.62 0,218.72 -76.86,404.94 -231.09,559.17 -154.24,154.24 -339.94,231.1 -557.63,231.1l-411.12 0zm0 -1441.78l0 1304.05 411.12 0c179.52,0 332.72,-63.45 460.13,-190.86 127.42,-127.41 191.38,-281.65 191.38,-461.68 0,-180.54 -63.96,-334.26 -191.38,-461.16 -127.41,-126.9 -280.61,-190.35 -460.13,-190.35l-411.12 0z"/>
  <polygon id="5" class="fil3" points="13000.72,14938.64 13000.72,17356.91 12865.05,17356.91 12865.05,14938.64 "/>
  <path id="6" class="fil3" d="M13736.83 17078.87c127.92,116.58 280.1,175.39 456.52,175.39 189.31,0 351.28,-67.06 485.4,-201.18 17.03,-17.02 33.02,-34.56 47.98,-52.62l143.92 51.07c-26.31,36.11 -56.23,71.19 -89.24,104.2 -162.5,162.49 -358.51,243.48 -588.06,243.48 -228.52,0 -424.03,-80.99 -586.52,-243.48 -161.97,-161.97 -242.96,-357.99 -242.96,-587.54 0,-229.04 80.99,-424.54 242.96,-586.51 162.49,-161.98 358,-243.48 586.52,-243.48 196.53,0 368.31,59.32 515.32,176.93 24.25,20.12 48.49,42.3 72.74,66.55 8.76,9.28 17.53,18.05 25.79,27.34l-103.17 102.65 -967.2 967.2zm867.64 -1059.54c-118.13,-90.79 -254.82,-135.66 -411.12,-135.66 -188.29,0 -349.75,66.54 -483.35,200.14 -134.12,133.09 -201.18,294.55 -201.18,484.38 0,155.78 45.4,293 136.19,411.12l959.46 -959.98z"/>
  <path id="7" class="fil3" d="M15368.95 16204l0 1152.91 -135.67 0 0 -1484.08 135.67 0 0 95.43c123.8,-123.28 268.23,-184.67 432.27,-184.67 175.39,0 317.76,55.2 427.63,165.07 109.88,109.36 166.11,248.12 169.2,415.25l0 993 -135.67 0 0 -980.61c0,-126.39 -45.91,-233.68 -137.21,-322.92 -90.79,-89.24 -199.11,-133.6 -323.95,-133.6 -124.83,0 -232.64,43.84 -323.43,131.53 -49.52,49.01 -85.63,100.08 -108.84,152.69z"/>
  <path id="8" class="fil3" d="M18453.68 17356.91l-136.18 0 0 -302.28c-25.8,35.07 -54.68,69.12 -86.15,101.1 -161.97,162.49 -357.99,243.48 -587.54,243.48 -229.04,0 -424.54,-80.99 -586.51,-243.48 -162.49,-161.97 -243.48,-357.48 -243.48,-585.99 0,-230.07 80.99,-426.09 243.48,-588.06 161.97,-161.98 357.47,-243.48 586.51,-243.48 229.55,0 425.57,80.99 587.54,243.48 31.47,31.98 60.35,66.02 86.15,101.1l0 -209.95 136.18 0 0 1484.08zm-136.18 -653.06l0 -268.75c-25.28,-133.09 -88.21,-250.18 -188.8,-350.77 -134.12,-134.12 -295.58,-200.66 -484.89,-200.66 -189.83,0 -351.29,66.54 -485.41,200.66 -134.12,134.12 -200.66,295.58 -200.66,485.41 0,189.31 66.54,350.77 200.66,484.37 134.12,133.09 295.58,200.15 485.41,200.15 189.31,0 350.77,-67.06 484.89,-201.18 100.59,-100.59 163.52,-217.17 188.8,-349.23z"/>
 </g>
</svg>
